<?xml version="1.0" encoding="UTF-8"?><!DOCTYPE svg PUBLIC "-//W3C//DTD SVG 1.1//EN" "http://www.w3.org/Graphics/SVG/1.1/DTD/svg11.dtd"><svg xmlns="http://www.w3.org/2000/svg" xmlns:xlink="http://www.w3.org/1999/xlink"><defs><filter id="a" width="300%" height="400%" x="-100%" y="-200%" color-interpolation-filters="sRGB" filterUnits="objectBoundingBox"><feDropShadow dx="0" dy="-4" flood-color="var(--thm-color3, #fff)" flood-opacity=".8" stdDeviation="12"/></filter></defs><symbol id="ic-burger" viewBox="0 0 32 32"><rect width="32" height="32" fill="#fff" rx="16"/><path fill="#0c0c0c" fill-rule="evenodd" d="M8 13a1 1 0 0 1 1-1h14a1 1 0 1 1 0 2H9a1 1 0 0 1-1-1M8 19a1 1 0 0 1 1-1h14a1 1 0 1 1 0 2H9a1 1 0 0 1-1-1" clip-rule="evenodd"/></symbol><symbol id="ic-test" viewBox="0 0 1932 924"><path fill="red" stroke="transparent" d="M1931.49 923.926H0V52.349l177.441 27.194L433.745 30l242.707 156.366 418.778 583.445 836.26 184.115z"/><path stroke="var(--thm-color3, #fff)" stroke-width="5" d="m0 52.349 177.441 27.194L433.745 30l242.707 156.366 418.778 583.445 836.26 184.115" filter="url(#a)"/></symbol></svg>